<svg width="28" height="28" viewBox="0 0 28 28" fill="none" xmlns="http://www.w3.org/2000/svg">
<path d="M25.4285 8.80359L11.4285 22.8036C11.3066 22.926 11.1617 23.023 11.0022 23.0893C10.8426 23.1555 10.6716 23.1896 10.4989 23.1896C10.3261 23.1896 10.1551 23.1555 9.99553 23.0893C9.836 23.023 9.69111 22.926 9.56917 22.8036L3.44417 16.6786C3.32208 16.5565 3.22524 16.4116 3.15916 16.252C3.09309 16.0925 3.05908 15.9216 3.05908 15.7489C3.05908 15.5762 3.09309 15.4053 3.15916 15.2458C3.22524 15.0862 3.32208 14.9413 3.44417 14.8192C3.56626 14.6971 3.7112 14.6003 3.87072 14.5342C4.03023 14.4681 4.2012 14.4341 4.37386 14.4341C4.54652 14.4341 4.71749 14.4681 4.877 14.5342C5.03652 14.6003 5.18146 14.6971 5.30355 14.8192L10.5 20.0156L23.5714 6.94641C23.8179 6.69984 24.1523 6.56132 24.501 6.56132C24.8497 6.56132 25.1842 6.69984 25.4307 6.94641C25.6773 7.19297 25.8158 7.52739 25.8158 7.87609C25.8158 8.22479 25.6773 8.55921 25.4307 8.80578L25.4285 8.80359Z" fill="#5D5D5D"/>
</svg>
