<svg width="26" height="26" viewBox="0 0 26 26" fill="none" xmlns="http://www.w3.org/2000/svg">
<path d="M22.75 13C22.75 13.2155 22.6644 13.4221 22.5121 13.5745C22.3597 13.7269 22.153 13.8125 21.9375 13.8125H6.0237L11.9499 19.7376C12.0254 19.8131 12.0852 19.9027 12.1261 20.0014C12.167 20.1 12.188 20.2057 12.188 20.3125C12.188 20.4192 12.167 20.5249 12.1261 20.6236C12.0852 20.7222 12.0254 20.8118 11.9499 20.8873C11.8744 20.9628 11.7848 21.0227 11.6861 21.0635C11.5875 21.1044 11.4818 21.1254 11.375 21.1254C11.2683 21.1254 11.1626 21.1044 11.0639 21.0635C10.9653 21.0227 10.8757 20.9628 10.8002 20.8873L3.48768 13.5748C3.41214 13.4993 3.35221 13.4097 3.31132 13.3111C3.27044 13.2125 3.24939 13.1067 3.24939 13C3.24939 12.8932 3.27044 12.7875 3.31132 12.6888C3.35221 12.5902 3.41214 12.5006 3.48768 12.4251L10.8002 5.11262C10.9526 4.96016 11.1594 4.87451 11.375 4.87451C11.5906 4.87451 11.7974 4.96016 11.9499 5.11262C12.1023 5.26508 12.188 5.47186 12.188 5.68746C12.188 5.90307 12.1023 6.10985 11.9499 6.26231L6.0237 12.1875H21.9375C22.153 12.1875 22.3597 12.2731 22.5121 12.4254C22.6644 12.5778 22.75 12.7845 22.75 13Z" fill="black"/>
</svg>
