<svg width="28" height="28" viewBox="0 0 28 28" fill="none" xmlns="http://www.w3.org/2000/svg">
<path d="M20.8333 3.50002H24.3333C24.6428 3.50002 24.9395 3.62294 25.1583 3.84173C25.3771 4.06052 25.5 4.35727 25.5 4.66669V25.6667C25.5 25.9761 25.3771 26.2729 25.1583 26.4916C24.9395 26.7104 24.6428 26.8334 24.3333 26.8334H5.66667C5.35725 26.8334 5.0605 26.7104 4.84171 26.4916C4.62292 26.2729 4.5 25.9761 4.5 25.6667V4.66669C4.5 4.35727 4.62292 4.06052 4.84171 3.84173C5.0605 3.62294 5.35725 3.50002 5.66667 3.50002H9.16667V1.16669H11.5V3.50002H18.5V1.16669H20.8333V3.50002ZM20.8333 5.83335V8.16669H18.5V5.83335H11.5V8.16669H9.16667V5.83335H6.83333V24.5H23.1667V5.83335H20.8333ZM9.16667 10.5H20.8333V12.8334H9.16667V10.5ZM9.16667 15.1667H20.8333V17.5H9.16667V15.1667Z" fill="#5D5D5D"/>
</svg>