<svg width="28" height="28" viewBox="0 0 28 28" fill="none" xmlns="http://www.w3.org/2000/svg">
<path d="M24.4183 16.3333C24.1377 18.2773 23.1659 20.055 21.681 21.3407C20.196 22.6264 18.2975 23.3338 16.3333 23.3333H6.41668V20.9999H16.3333C17.8804 20.9999 19.3642 20.3853 20.4581 19.2914C21.5521 18.1974 22.1667 16.7137 22.1667 15.1666C22.1667 13.6195 21.5521 12.1358 20.4581 11.0418C19.3642 9.94784 17.8804 9.33326 16.3333 9.33326H8.06634L10.983 12.2499L9.33334 13.8996L3.60034 8.16659L9.33334 2.43359L10.983 4.08326L8.06634 6.99993H16.3333C18.4993 6.99993 20.5765 7.86034 22.108 9.39189C23.6396 10.9234 24.5 13.0007 24.5 15.1666V16.3333H24.4183Z" fill="#5D5D5D"/>
</svg>
